<mxfile host="app.diagrams.net" modified="2024-01-04T16:25:01.142Z" agent="Mozilla/5.0 (Windows NT 10.0; Win64; x64) AppleWebKit/537.36 (KHTML, like Gecko) Chrome/120.0.0.0 Safari/537.36" etag="1DseWBVQK1A1fplPDH0H" version="22.1.16" type="device">
  <diagram name="Page-1" id="xAQ9B_ptFqCwm8DpqB9X">
    <mxGraphModel dx="801" dy="467" grid="1" gridSize="5" guides="1" tooltips="1" connect="1" arrows="1" fold="1" page="1" pageScale="1" pageWidth="827" pageHeight="1169" math="0" shadow="0">
      <root>
        <mxCell id="0" />
        <mxCell id="1" parent="0" />
        <mxCell id="YdbPv1LBbcVnRsAlkun8-1" value="&lt;b&gt;&lt;font style=&quot;font-size: 13px;&quot;&gt;rooms&lt;/font&gt;&lt;/b&gt;" style="swimlane;fontStyle=0;childLayout=stackLayout;horizontal=1;startSize=30;horizontalStack=0;resizeParent=1;resizeParentMax=0;resizeLast=0;collapsible=1;marginBottom=0;whiteSpace=wrap;html=1;labelBackgroundColor=none;fillColor=#09555B;strokeColor=#BAC8D3;fontColor=#EEEEEE;" vertex="1" parent="1">
          <mxGeometry x="120" y="160" width="160" height="250" as="geometry" />
        </mxCell>
        <mxCell id="YdbPv1LBbcVnRsAlkun8-2" value="&lt;b&gt;id_room&lt;br&gt;&lt;br&gt;room_number&lt;br&gt;&lt;br&gt;price&lt;br&gt;&lt;br&gt;room_imgs&lt;br&gt;&lt;br&gt;persons&lt;br style=&quot;border-color: var(--border-color);&quot;&gt;&lt;br style=&quot;border-color: var(--border-color);&quot;&gt;category&lt;br style=&quot;border-color: var(--border-color);&quot;&gt;&lt;br style=&quot;border-color: var(--border-color);&quot;&gt;room_state&lt;/b&gt;" style="text;strokeColor=#BAC8D3;fillColor=#09555B;align=left;verticalAlign=middle;spacingLeft=4;spacingRight=4;overflow=hidden;points=[[0,0.5],[1,0.5]];portConstraint=eastwest;rotatable=0;whiteSpace=wrap;html=1;labelBackgroundColor=none;fontColor=#EEEEEE;" vertex="1" parent="YdbPv1LBbcVnRsAlkun8-1">
          <mxGeometry y="30" width="160" height="220" as="geometry" />
        </mxCell>
        <mxCell id="YdbPv1LBbcVnRsAlkun8-9" value="&lt;b&gt;&lt;font style=&quot;font-size: 13px;&quot;&gt;bookings&lt;/font&gt;&lt;/b&gt;" style="swimlane;fontStyle=0;childLayout=stackLayout;horizontal=1;startSize=30;horizontalStack=0;resizeParent=1;resizeParentMax=0;resizeLast=0;collapsible=1;marginBottom=0;whiteSpace=wrap;html=1;labelBackgroundColor=none;fillColor=#09555B;strokeColor=#BAC8D3;fontColor=#EEEEEE;" vertex="1" parent="1">
          <mxGeometry x="1120" y="160" width="160" height="250" as="geometry" />
        </mxCell>
        <mxCell id="YdbPv1LBbcVnRsAlkun8-10" value="&lt;b&gt;id_booking&lt;br&gt;&lt;br&gt;booking_start_date&lt;br&gt;&lt;br&gt;booking_end_date&lt;br&gt;&lt;br&gt;user_id&lt;br&gt;&lt;br&gt;room_id&lt;br style=&quot;border-color: var(--border-color);&quot;&gt;&lt;br style=&quot;border-color: var(--border-color);&quot;&gt;booking_price&lt;br style=&quot;border-color: var(--border-color);&quot;&gt;&lt;br style=&quot;border-color: var(--border-color);&quot;&gt;booking_state&lt;/b&gt;" style="text;strokeColor=#BAC8D3;fillColor=#09555B;align=left;verticalAlign=middle;spacingLeft=4;spacingRight=4;overflow=hidden;points=[[0,0.5],[1,0.5]];portConstraint=eastwest;rotatable=0;whiteSpace=wrap;html=1;labelBackgroundColor=none;fontColor=#EEEEEE;" vertex="1" parent="YdbPv1LBbcVnRsAlkun8-9">
          <mxGeometry y="30" width="160" height="220" as="geometry" />
        </mxCell>
        <mxCell id="YdbPv1LBbcVnRsAlkun8-11" value="&lt;b&gt;&lt;font style=&quot;font-size: 13px;&quot;&gt;users&lt;/font&gt;&lt;/b&gt;" style="swimlane;fontStyle=0;childLayout=stackLayout;horizontal=1;startSize=30;horizontalStack=0;resizeParent=1;resizeParentMax=0;resizeLast=0;collapsible=1;marginBottom=0;whiteSpace=wrap;html=1;labelBackgroundColor=none;fillColor=#09555B;strokeColor=#BAC8D3;fontColor=#EEEEEE;" vertex="1" parent="1">
          <mxGeometry x="1520" y="160" width="160" height="340" as="geometry" />
        </mxCell>
        <mxCell id="YdbPv1LBbcVnRsAlkun8-12" value="&lt;b&gt;id_user&lt;/b&gt;&lt;br&gt;&lt;br&gt;&lt;b&gt;last_name&lt;/b&gt;&lt;br&gt;&lt;br&gt;&lt;b&gt;first_name&lt;/b&gt;&lt;br&gt;&lt;br&gt;&lt;b&gt;email&lt;/b&gt;&lt;br&gt;&lt;br&gt;&lt;b&gt;password&lt;/b&gt;&lt;br style=&quot;border-color: var(--border-color);&quot;&gt;&lt;br style=&quot;border-color: var(--border-color);&quot;&gt;&lt;b&gt;role&lt;/b&gt;&lt;br style=&quot;border-color: var(--border-color);&quot;&gt;&lt;br style=&quot;border-color: var(--border-color);&quot;&gt;&lt;b&gt;birthday&lt;br&gt;&lt;/b&gt;&lt;br&gt;&lt;b&gt;address&lt;br&gt;&lt;br&gt;phone_number&lt;br&gt;&lt;br&gt;gender&lt;/b&gt;" style="text;strokeColor=#BAC8D3;fillColor=#09555B;align=left;verticalAlign=middle;spacingLeft=4;spacingRight=4;overflow=hidden;points=[[0,0.5],[1,0.5]];portConstraint=eastwest;rotatable=0;whiteSpace=wrap;html=1;labelBackgroundColor=none;fontColor=#EEEEEE;" vertex="1" parent="YdbPv1LBbcVnRsAlkun8-11">
          <mxGeometry y="30" width="160" height="310" as="geometry" />
        </mxCell>
        <mxCell id="YdbPv1LBbcVnRsAlkun8-13" value="&lt;b&gt;&lt;font style=&quot;font-size: 13px;&quot;&gt;rooms_bokings&lt;/font&gt;&lt;/b&gt;" style="swimlane;fontStyle=0;childLayout=stackLayout;horizontal=1;startSize=30;horizontalStack=0;resizeParent=1;resizeParentMax=0;resizeLast=0;collapsible=1;marginBottom=0;whiteSpace=wrap;html=1;labelBackgroundColor=none;fillColor=#09555B;strokeColor=#BAC8D3;fontColor=#EEEEEE;direction=east;" vertex="1" parent="1">
          <mxGeometry x="520" y="160" width="360" height="225" as="geometry">
            <mxRectangle x="280" y="160" width="135" height="30" as="alternateBounds" />
          </mxGeometry>
        </mxCell>
        <mxCell id="YdbPv1LBbcVnRsAlkun8-14" value="&lt;b&gt;id_room_booking&lt;br&gt;&lt;br&gt;id_room&lt;br&gt;&lt;br&gt;&lt;/b&gt;&lt;b style=&quot;border-color: var(--border-color);&quot;&gt;id_booking&lt;/b&gt;&lt;b&gt;&lt;br&gt;&lt;br&gt;persons&lt;br style=&quot;border-color: var(--border-color);&quot;&gt;&lt;br style=&quot;border-color: var(--border-color);&quot;&gt;category&lt;br style=&quot;border-color: var(--border-color);&quot;&gt;&lt;br style=&quot;border-color: var(--border-color);&quot;&gt;room_state&lt;/b&gt;" style="text;strokeColor=#BAC8D3;fillColor=#09555B;align=left;verticalAlign=middle;spacingLeft=4;spacingRight=4;overflow=hidden;points=[[0,0.5],[1,0.5]];portConstraint=eastwest;rotatable=0;whiteSpace=wrap;html=1;labelBackgroundColor=none;fontColor=#EEEEEE;" vertex="1" parent="YdbPv1LBbcVnRsAlkun8-13">
          <mxGeometry y="30" width="360" height="195" as="geometry" />
        </mxCell>
        <mxCell id="YdbPv1LBbcVnRsAlkun8-18" value="&lt;b&gt;0,n&lt;/b&gt;&lt;br&gt;Cardinalité&lt;br&gt;&lt;b&gt;0,1&lt;/b&gt;" style="shape=rhombus;double=1;perimeter=rhombusPerimeter;whiteSpace=wrap;html=1;align=center;strokeColor=#BAC8D3;fontColor=#EEEEEE;fillColor=#09555B;" vertex="1" parent="1">
          <mxGeometry x="340" y="345" width="120" height="60" as="geometry" />
        </mxCell>
        <mxCell id="YdbPv1LBbcVnRsAlkun8-20" value="" style="endArrow=none;html=1;rounded=0;strokeColor=#b85450;fillColor=#f8cecc;strokeWidth=3;" edge="1" parent="1">
          <mxGeometry relative="1" as="geometry">
            <mxPoint x="460" y="375.5" as="sourcePoint" />
            <mxPoint x="520" y="375" as="targetPoint" />
            <Array as="points">
              <mxPoint x="515" y="375" />
            </Array>
          </mxGeometry>
        </mxCell>
        <mxCell id="YdbPv1LBbcVnRsAlkun8-21" value="1" style="resizable=0;html=1;whiteSpace=wrap;align=right;verticalAlign=bottom;strokeColor=#BAC8D3;fontColor=#EEEEEE;fillColor=#09555B;" connectable="0" vertex="1" parent="YdbPv1LBbcVnRsAlkun8-20">
          <mxGeometry x="1" relative="1" as="geometry" />
        </mxCell>
        <mxCell id="YdbPv1LBbcVnRsAlkun8-23" value="" style="endArrow=none;html=1;rounded=0;strokeColor=#b85450;fillColor=#f8cecc;strokeWidth=3;" edge="1" parent="1">
          <mxGeometry relative="1" as="geometry">
            <mxPoint x="280" y="375.5" as="sourcePoint" />
            <mxPoint x="345" y="375" as="targetPoint" />
            <Array as="points">
              <mxPoint x="340" y="375" />
            </Array>
          </mxGeometry>
        </mxCell>
        <mxCell id="YdbPv1LBbcVnRsAlkun8-24" value="1" style="resizable=0;html=1;whiteSpace=wrap;align=right;verticalAlign=bottom;strokeColor=#BAC8D3;fontColor=#EEEEEE;fillColor=#09555B;" connectable="0" vertex="1" parent="YdbPv1LBbcVnRsAlkun8-23">
          <mxGeometry x="1" relative="1" as="geometry" />
        </mxCell>
        <mxCell id="YdbPv1LBbcVnRsAlkun8-27" value="&lt;b&gt;1,n&lt;/b&gt;&lt;br&gt;Cardinalité&lt;br&gt;&lt;b&gt;1,n&lt;/b&gt;" style="shape=rhombus;double=1;perimeter=rhombusPerimeter;whiteSpace=wrap;html=1;align=center;strokeColor=#BAC8D3;fontColor=#EEEEEE;fillColor=#09555B;" vertex="1" parent="1">
          <mxGeometry x="940" y="350" width="120" height="60" as="geometry" />
        </mxCell>
        <mxCell id="YdbPv1LBbcVnRsAlkun8-28" value="" style="endArrow=none;html=1;rounded=0;strokeColor=#b85450;fillColor=#f8cecc;strokeWidth=3;" edge="1" parent="1">
          <mxGeometry relative="1" as="geometry">
            <mxPoint x="1060" y="380.5" as="sourcePoint" />
            <mxPoint x="1120" y="380" as="targetPoint" />
            <Array as="points">
              <mxPoint x="1115" y="380" />
            </Array>
          </mxGeometry>
        </mxCell>
        <mxCell id="YdbPv1LBbcVnRsAlkun8-29" value="1" style="resizable=0;html=1;whiteSpace=wrap;align=right;verticalAlign=bottom;strokeColor=#BAC8D3;fontColor=#EEEEEE;fillColor=#09555B;" connectable="0" vertex="1" parent="YdbPv1LBbcVnRsAlkun8-28">
          <mxGeometry x="1" relative="1" as="geometry" />
        </mxCell>
        <mxCell id="YdbPv1LBbcVnRsAlkun8-34" value="" style="endArrow=none;html=1;rounded=0;strokeColor=#b85450;fillColor=#f8cecc;strokeWidth=3;" edge="1" parent="1">
          <mxGeometry relative="1" as="geometry">
            <mxPoint x="880" y="380" as="sourcePoint" />
            <mxPoint x="940" y="379.5" as="targetPoint" />
            <Array as="points">
              <mxPoint x="905" y="380" />
              <mxPoint x="935" y="379.5" />
            </Array>
          </mxGeometry>
        </mxCell>
        <mxCell id="YdbPv1LBbcVnRsAlkun8-35" value="1" style="resizable=0;html=1;whiteSpace=wrap;align=right;verticalAlign=bottom;strokeColor=#BAC8D3;fontColor=#EEEEEE;fillColor=#09555B;" connectable="0" vertex="1" parent="YdbPv1LBbcVnRsAlkun8-34">
          <mxGeometry x="1" relative="1" as="geometry" />
        </mxCell>
        <mxCell id="YdbPv1LBbcVnRsAlkun8-41" value="" style="shape=link;html=1;rounded=0;strokeColor=#82b366;entryX=0;entryY=0.25;entryDx=0;entryDy=0;exitX=1;exitY=0.108;exitDx=0;exitDy=0;exitPerimeter=0;strokeWidth=5;fillColor=#d5e8d4;" edge="1" parent="1">
          <mxGeometry relative="1" as="geometry">
            <mxPoint x="880" y="215" as="sourcePoint" />
            <mxPoint x="1120" y="215" as="targetPoint" />
          </mxGeometry>
        </mxCell>
        <mxCell id="YdbPv1LBbcVnRsAlkun8-42" value="1" style="resizable=0;html=1;whiteSpace=wrap;align=right;verticalAlign=bottom;strokeColor=#BAC8D3;fontColor=#EEEEEE;fillColor=#09555B;" connectable="0" vertex="1" parent="YdbPv1LBbcVnRsAlkun8-41">
          <mxGeometry x="1" relative="1" as="geometry" />
        </mxCell>
        <mxCell id="YdbPv1LBbcVnRsAlkun8-43" value="&lt;b&gt;key&amp;nbsp;PRIMARY&lt;/b&gt;" style="whiteSpace=wrap;html=1;align=center;strokeColor=#82b366;fillColor=#d5e8d4;gradientColor=#97d077;" vertex="1" parent="1">
          <mxGeometry x="960" y="170" width="100" height="40" as="geometry" />
        </mxCell>
        <mxCell id="YdbPv1LBbcVnRsAlkun8-44" value="" style="shape=link;html=1;rounded=0;strokeColor=#82b366;entryX=0;entryY=0.25;entryDx=0;entryDy=0;exitX=1;exitY=0.108;exitDx=0;exitDy=0;exitPerimeter=0;strokeWidth=5;fillColor=#d5e8d4;" edge="1" parent="1">
          <mxGeometry relative="1" as="geometry">
            <mxPoint x="1280" y="215" as="sourcePoint" />
            <mxPoint x="1520" y="215" as="targetPoint" />
          </mxGeometry>
        </mxCell>
        <mxCell id="YdbPv1LBbcVnRsAlkun8-45" value="1" style="resizable=0;html=1;whiteSpace=wrap;align=right;verticalAlign=bottom;strokeColor=#BAC8D3;fontColor=#EEEEEE;fillColor=#09555B;" connectable="0" vertex="1" parent="YdbPv1LBbcVnRsAlkun8-44">
          <mxGeometry x="1" relative="1" as="geometry" />
        </mxCell>
        <mxCell id="YdbPv1LBbcVnRsAlkun8-46" value="&lt;b&gt;key&amp;nbsp;PRIMARY&lt;/b&gt;" style="whiteSpace=wrap;html=1;align=center;strokeColor=#82b366;fillColor=#d5e8d4;gradientColor=#97d077;" vertex="1" parent="1">
          <mxGeometry x="1340" y="170" width="100" height="40" as="geometry" />
        </mxCell>
        <mxCell id="YdbPv1LBbcVnRsAlkun8-47" value="" style="endArrow=none;html=1;rounded=0;strokeColor=#b85450;fillColor=#f8cecc;strokeWidth=3;" edge="1" parent="1">
          <mxGeometry relative="1" as="geometry">
            <mxPoint x="1280" y="380.5" as="sourcePoint" />
            <mxPoint x="1340" y="380" as="targetPoint" />
            <Array as="points">
              <mxPoint x="1335" y="380" />
            </Array>
          </mxGeometry>
        </mxCell>
        <mxCell id="YdbPv1LBbcVnRsAlkun8-48" value="1" style="resizable=0;html=1;whiteSpace=wrap;align=right;verticalAlign=bottom;strokeColor=#BAC8D3;fontColor=#EEEEEE;fillColor=#09555B;" connectable="0" vertex="1" parent="YdbPv1LBbcVnRsAlkun8-47">
          <mxGeometry x="1" relative="1" as="geometry" />
        </mxCell>
        <mxCell id="YdbPv1LBbcVnRsAlkun8-49" value="&lt;b&gt;1,1&lt;/b&gt;&lt;br&gt;Cardinalité&lt;br&gt;&lt;b&gt;0,n&lt;/b&gt;" style="shape=rhombus;double=1;perimeter=rhombusPerimeter;whiteSpace=wrap;html=1;align=center;strokeColor=#BAC8D3;fontColor=#EEEEEE;fillColor=#09555B;" vertex="1" parent="1">
          <mxGeometry x="1340" y="350" width="120" height="60" as="geometry" />
        </mxCell>
        <mxCell id="YdbPv1LBbcVnRsAlkun8-50" value="" style="endArrow=none;html=1;rounded=0;strokeColor=#b85450;fillColor=#f8cecc;strokeWidth=3;" edge="1" parent="1">
          <mxGeometry relative="1" as="geometry">
            <mxPoint x="1460" y="380" as="sourcePoint" />
            <mxPoint x="1520" y="379.5" as="targetPoint" />
            <Array as="points">
              <mxPoint x="1515" y="379.5" />
            </Array>
          </mxGeometry>
        </mxCell>
        <mxCell id="YdbPv1LBbcVnRsAlkun8-51" value="1" style="resizable=0;html=1;whiteSpace=wrap;align=right;verticalAlign=bottom;strokeColor=#BAC8D3;fontColor=#EEEEEE;fillColor=#09555B;" connectable="0" vertex="1" parent="YdbPv1LBbcVnRsAlkun8-50">
          <mxGeometry x="1" relative="1" as="geometry" />
        </mxCell>
        <mxCell id="YdbPv1LBbcVnRsAlkun8-59" value="&lt;span style=&quot;border-bottom: 1px dotted&quot;&gt;&lt;b&gt;&lt;font style=&quot;font-size: 15px;&quot;&gt;can&lt;/font&gt;&lt;/b&gt;&lt;/span&gt;" style="ellipse;whiteSpace=wrap;html=1;align=center;strokeColor=#005700;fillColor=#008a00;fontColor=#ffffff;fontStyle=0" vertex="1" parent="1">
          <mxGeometry x="960" y="250" width="80" height="70" as="geometry" />
        </mxCell>
        <mxCell id="YdbPv1LBbcVnRsAlkun8-60" value="" style="endArrow=none;html=1;rounded=0;strokeColor=#ae4132;strokeWidth=5;fillColor=#fad9d5;entryX=0;entryY=0.409;entryDx=0;entryDy=0;entryPerimeter=0;" edge="1" parent="1">
          <mxGeometry relative="1" as="geometry">
            <mxPoint x="880" y="280" as="sourcePoint" />
            <mxPoint x="960" y="280" as="targetPoint" />
          </mxGeometry>
        </mxCell>
        <mxCell id="YdbPv1LBbcVnRsAlkun8-61" value="1" style="resizable=0;html=1;whiteSpace=wrap;align=right;verticalAlign=bottom;strokeColor=#BAC8D3;fontColor=#EEEEEE;fillColor=#09555B;" connectable="0" vertex="1" parent="YdbPv1LBbcVnRsAlkun8-60">
          <mxGeometry x="1" relative="1" as="geometry" />
        </mxCell>
        <mxCell id="YdbPv1LBbcVnRsAlkun8-62" value="" style="endArrow=none;html=1;rounded=0;strokeColor=#ae4132;strokeWidth=5;fillColor=#fad9d5;entryX=0;entryY=0.409;entryDx=0;entryDy=0;entryPerimeter=0;" edge="1" parent="1">
          <mxGeometry relative="1" as="geometry">
            <mxPoint x="1040" y="280" as="sourcePoint" />
            <mxPoint x="1120" y="280" as="targetPoint" />
          </mxGeometry>
        </mxCell>
        <mxCell id="YdbPv1LBbcVnRsAlkun8-63" value="1" style="resizable=0;html=1;whiteSpace=wrap;align=right;verticalAlign=bottom;strokeColor=#BAC8D3;fontColor=#EEEEEE;fillColor=#09555B;" connectable="0" vertex="1" parent="YdbPv1LBbcVnRsAlkun8-62">
          <mxGeometry x="1" relative="1" as="geometry" />
        </mxCell>
        <mxCell id="YdbPv1LBbcVnRsAlkun8-64" value="" style="shape=link;html=1;rounded=0;strokeColor=#82b366;entryX=0;entryY=0.25;entryDx=0;entryDy=0;exitX=1;exitY=0.108;exitDx=0;exitDy=0;exitPerimeter=0;strokeWidth=5;fillColor=#d5e8d4;" edge="1" parent="1">
          <mxGeometry relative="1" as="geometry">
            <mxPoint x="280" y="215" as="sourcePoint" />
            <mxPoint x="520" y="215" as="targetPoint" />
          </mxGeometry>
        </mxCell>
        <mxCell id="YdbPv1LBbcVnRsAlkun8-65" value="1" style="resizable=0;html=1;whiteSpace=wrap;align=right;verticalAlign=bottom;strokeColor=#BAC8D3;fontColor=#EEEEEE;fillColor=#09555B;" connectable="0" vertex="1" parent="YdbPv1LBbcVnRsAlkun8-64">
          <mxGeometry x="1" relative="1" as="geometry" />
        </mxCell>
        <mxCell id="YdbPv1LBbcVnRsAlkun8-66" value="&lt;b&gt;key&amp;nbsp;PRIMARY&lt;/b&gt;" style="whiteSpace=wrap;html=1;align=center;strokeColor=#82b366;fillColor=#d5e8d4;gradientColor=#97d077;" vertex="1" parent="1">
          <mxGeometry x="350" y="170" width="100" height="40" as="geometry" />
        </mxCell>
        <mxCell id="YdbPv1LBbcVnRsAlkun8-67" value="" style="endArrow=none;html=1;rounded=0;strokeColor=#ae4132;strokeWidth=5;fillColor=#fad9d5;entryX=0;entryY=0.409;entryDx=0;entryDy=0;entryPerimeter=0;" edge="1" parent="1">
          <mxGeometry relative="1" as="geometry">
            <mxPoint x="440" y="280" as="sourcePoint" />
            <mxPoint x="520" y="280" as="targetPoint" />
          </mxGeometry>
        </mxCell>
        <mxCell id="YdbPv1LBbcVnRsAlkun8-68" value="1" style="resizable=0;html=1;whiteSpace=wrap;align=right;verticalAlign=bottom;strokeColor=#BAC8D3;fontColor=#EEEEEE;fillColor=#09555B;" connectable="0" vertex="1" parent="YdbPv1LBbcVnRsAlkun8-67">
          <mxGeometry x="1" relative="1" as="geometry" />
        </mxCell>
        <mxCell id="YdbPv1LBbcVnRsAlkun8-69" value="&lt;span style=&quot;border-bottom: 1px dotted&quot;&gt;&lt;b&gt;&lt;font style=&quot;font-size: 15px;&quot;&gt;can&lt;/font&gt;&lt;/b&gt;&lt;/span&gt;" style="ellipse;whiteSpace=wrap;html=1;align=center;strokeColor=#005700;fillColor=#008a00;fontColor=#ffffff;fontStyle=0" vertex="1" parent="1">
          <mxGeometry x="360" y="245" width="80" height="70" as="geometry" />
        </mxCell>
        <mxCell id="YdbPv1LBbcVnRsAlkun8-70" value="" style="endArrow=none;html=1;rounded=0;strokeColor=#ae4132;strokeWidth=5;fillColor=#fad9d5;entryX=0;entryY=0.409;entryDx=0;entryDy=0;entryPerimeter=0;" edge="1" parent="1">
          <mxGeometry relative="1" as="geometry">
            <mxPoint x="280" y="279.5" as="sourcePoint" />
            <mxPoint x="360" y="279.5" as="targetPoint" />
          </mxGeometry>
        </mxCell>
        <mxCell id="YdbPv1LBbcVnRsAlkun8-71" value="1" style="resizable=0;html=1;whiteSpace=wrap;align=right;verticalAlign=bottom;strokeColor=#BAC8D3;fontColor=#EEEEEE;fillColor=#09555B;" connectable="0" vertex="1" parent="YdbPv1LBbcVnRsAlkun8-70">
          <mxGeometry x="1" relative="1" as="geometry" />
        </mxCell>
        <mxCell id="YdbPv1LBbcVnRsAlkun8-72" value="" style="endArrow=none;html=1;rounded=0;strokeColor=#ae4132;strokeWidth=5;fillColor=#fad9d5;entryX=0;entryY=0.409;entryDx=0;entryDy=0;entryPerimeter=0;" edge="1" parent="1">
          <mxGeometry relative="1" as="geometry">
            <mxPoint x="1280" y="279.5" as="sourcePoint" />
            <mxPoint x="1360" y="279.5" as="targetPoint" />
          </mxGeometry>
        </mxCell>
        <mxCell id="YdbPv1LBbcVnRsAlkun8-73" value="1" style="resizable=0;html=1;whiteSpace=wrap;align=right;verticalAlign=bottom;strokeColor=#BAC8D3;fontColor=#EEEEEE;fillColor=#09555B;" connectable="0" vertex="1" parent="YdbPv1LBbcVnRsAlkun8-72">
          <mxGeometry x="1" relative="1" as="geometry" />
        </mxCell>
        <mxCell id="YdbPv1LBbcVnRsAlkun8-74" value="" style="endArrow=none;html=1;rounded=0;strokeColor=#ae4132;strokeWidth=5;fillColor=#fad9d5;entryX=0;entryY=0.409;entryDx=0;entryDy=0;entryPerimeter=0;" edge="1" parent="1">
          <mxGeometry relative="1" as="geometry">
            <mxPoint x="1440" y="279.5" as="sourcePoint" />
            <mxPoint x="1520" y="279.5" as="targetPoint" />
          </mxGeometry>
        </mxCell>
        <mxCell id="YdbPv1LBbcVnRsAlkun8-75" value="1" style="resizable=0;html=1;whiteSpace=wrap;align=right;verticalAlign=bottom;strokeColor=#BAC8D3;fontColor=#EEEEEE;fillColor=#09555B;" connectable="0" vertex="1" parent="YdbPv1LBbcVnRsAlkun8-74">
          <mxGeometry x="1" relative="1" as="geometry" />
        </mxCell>
        <mxCell id="YdbPv1LBbcVnRsAlkun8-76" value="&lt;span style=&quot;border-bottom: 1px dotted&quot;&gt;&lt;b&gt;&lt;font style=&quot;font-size: 15px;&quot;&gt;can&lt;/font&gt;&lt;/b&gt;&lt;/span&gt;" style="ellipse;whiteSpace=wrap;html=1;align=center;strokeColor=#005700;fillColor=#008a00;fontColor=#ffffff;fontStyle=0" vertex="1" parent="1">
          <mxGeometry x="1360" y="245" width="80" height="70" as="geometry" />
        </mxCell>
        <mxCell id="YdbPv1LBbcVnRsAlkun8-79" value="" style="endArrow=block;endFill=1;html=1;edgeStyle=orthogonalEdgeStyle;align=left;verticalAlign=top;rounded=0;strokeColor=#0B4D6A;strokeWidth=3;" edge="1" parent="1">
          <mxGeometry x="-1" relative="1" as="geometry">
            <mxPoint x="345" y="340" as="sourcePoint" />
            <mxPoint x="465" y="340" as="targetPoint" />
          </mxGeometry>
        </mxCell>
        <mxCell id="YdbPv1LBbcVnRsAlkun8-80" value="1" style="edgeLabel;resizable=0;html=1;align=left;verticalAlign=bottom;strokeColor=#BAC8D3;fontColor=#EEEEEE;fillColor=#09555B;" connectable="0" vertex="1" parent="YdbPv1LBbcVnRsAlkun8-79">
          <mxGeometry x="-1" relative="1" as="geometry" />
        </mxCell>
        <mxCell id="YdbPv1LBbcVnRsAlkun8-81" value="" style="endArrow=block;endFill=1;html=1;edgeStyle=orthogonalEdgeStyle;align=left;verticalAlign=top;rounded=0;strokeColor=#0B4D6A;strokeWidth=3;" edge="1" parent="1">
          <mxGeometry x="-1" relative="1" as="geometry">
            <mxPoint x="930" y="345" as="sourcePoint" />
            <mxPoint x="1060" y="345" as="targetPoint" />
          </mxGeometry>
        </mxCell>
        <mxCell id="YdbPv1LBbcVnRsAlkun8-82" value="1" style="edgeLabel;resizable=0;html=1;align=left;verticalAlign=bottom;strokeColor=#BAC8D3;fontColor=#EEEEEE;fillColor=#09555B;" connectable="0" vertex="1" parent="YdbPv1LBbcVnRsAlkun8-81">
          <mxGeometry x="-1" relative="1" as="geometry" />
        </mxCell>
        <mxCell id="YdbPv1LBbcVnRsAlkun8-83" value="" style="endArrow=block;endFill=1;html=1;edgeStyle=orthogonalEdgeStyle;align=left;verticalAlign=top;rounded=0;strokeColor=#0B4D6A;strokeWidth=3;" edge="1" parent="1">
          <mxGeometry x="-1" relative="1" as="geometry">
            <mxPoint x="1330" y="345" as="sourcePoint" />
            <mxPoint x="1460" y="345" as="targetPoint" />
          </mxGeometry>
        </mxCell>
        <mxCell id="YdbPv1LBbcVnRsAlkun8-84" value="1" style="edgeLabel;resizable=0;html=1;align=left;verticalAlign=bottom;strokeColor=#BAC8D3;fontColor=#EEEEEE;fillColor=#09555B;" connectable="0" vertex="1" parent="YdbPv1LBbcVnRsAlkun8-83">
          <mxGeometry x="-1" relative="1" as="geometry" />
        </mxCell>
      </root>
    </mxGraphModel>
  </diagram>
</mxfile>
